<svg width="24" height="24" viewBox="0 0 24 24">
  <path d="m 18.9 18.0602 h -4.0514 V 11.5408 c 0 -1.6375 -0.5854 -2.7552 -2.0517 -2.7552 c -1.1198 0 -1.7853 0.7526 -2.0785 1.4816 c -0.1066 0.2604 -0.1344 0.6224 -0.1344 0.9875 v 6.8056 h -4.0522 c 0 0 0.0543 -11.0426 0 -12.1858 h 4.0522 V 7.6013 c 0.5384 -0.8284 1.4992 -2.0128 3.6514 -2.0128 c 2.6662 0 4.6646 1.7412 4.6646 5.4839 z m -16.68 -13.8602 h 0.06 C 0.8807 4.2113 0 3.2752 0 2.1052 C 0 0.9095 0.9064 0 2.2927 0 c 1.3865 0 2.2386 0.9095 2.2651 2.1052 c 0 1.17 -0.8786 2.1061 -2.2916 2.1061 z M 4.2913 18.0602 H 0.241 V 5.8745 h 4.0504 z"/>
</svg>
