<?xml version="1.0" encoding="UTF-8" standalone="no"?>
<!-- Created with Inkscape (http://www.inkscape.org/) -->

<svg
   width="138.27571mm"
   height="47.199936mm"
   viewBox="0 0 138.27571 47.199936"
   version="1.1"
   id="svg1"
   inkscape:version="1.3 (0e150ed6c4, 2023-07-21)"
   xml:space="preserve"
   sodipodi:docname="katakana-project.svg"
   xmlns:inkscape="http://www.inkscape.org/namespaces/inkscape"
   xmlns:sodipodi="http://sodipodi.sourceforge.net/DTD/sodipodi-0.dtd"
   xmlns="http://www.w3.org/2000/svg"
   xmlns:svg="http://www.w3.org/2000/svg"><sodipodi:namedview
     id="namedview1"
     pagecolor="#5f5f5f"
     bordercolor="#000000"
     borderopacity="0.25"
     inkscape:showpageshadow="2"
     inkscape:pageopacity="0.0"
     inkscape:pagecheckerboard="0"
     inkscape:deskcolor="#3a3a3a"
     inkscape:document-units="mm"
     inkscape:zoom="2.0588697"
     inkscape:cx="261.30843"
     inkscape:cy="89.369426"
     inkscape:window-width="1920"
     inkscape:window-height="991"
     inkscape:window-x="-9"
     inkscape:window-y="-9"
     inkscape:window-maximized="1"
     inkscape:current-layer="layer1" /><defs
     id="defs1" /><g
     inkscape:label="Layer 1"
     inkscape:groupmode="layer"
     id="layer1"
     transform="translate(-7.7275653,-22.090044)"><g
       id="g2"
       transform="matrix(1.0012034,0,0,0.87951075,-13.739406,-15.474149)"
       style="stroke:#ffffff;fill:#ffffff"><path
         d="M 53.960476,62.588274 H 48.932662 V 94.766286 H 44.982236 V 84.088165 L 44.886476,84.064225 30.281872,95.053592 27.815848,92.060844 36.31525,85.95564 36.29131,85.85988 Q 34.447767,85.716219 32.939423,85.045844 31.431078,84.375469 30.35369,83.154429 29.276301,81.933387 28.677752,80.137739 28.103145,78.34209 28.103145,75.947894 v -13.35962 h -5.339061 v -3.519471 h 31.196392 z m -8.97824,0 H 31.981743 v 13.144143 q 0,1.508343 0.239422,2.705441 0.263361,1.1971 0.86191,2.035069 0.622491,0.837969 1.628054,1.292866 1.005562,0.430955 2.513908,0.430955 2.466022,0 4.453206,-1.077388 1.987183,-1.10133 3.303993,-2.896979 z m 21.715369,0 H 61.669791 V 94.766286 H 57.743308 V 62.588274 h -5.45877 v -3.519471 h 14.413067 z m -5.363001,-2.849096 h -3.471587 l -2.178718,-4.094077 q -1.388636,-2.609676 -2.53785,-4.141962 -1.125272,-1.532287 -2.130837,-2.322372 -1.029504,-0.814026 -2.011124,-1.029504 -0.981621,-0.23942 -2.059011,-0.23942 h -4.644743 v -3.8786 h 4.381381 q 1.388636,0 2.513908,0.23942 1.125273,0.215478 2.154779,0.814027 1.005562,0.574607 1.963241,1.628055 0.98162,1.029505 2.082952,2.6815 1.101331,1.628055 2.394197,3.926484 1.316807,2.274488 2.992747,5.386945 z m 42.066056,2.849096 H 98.372838 V 94.766286 H 94.446355 V 73.984651 h -7.709316 l -0.02394,0.09576 q 0.287304,0.335188 0.861911,1.029506 0.574607,0.670375 1.149216,1.675938 0.574607,0.98162 1.005562,2.250546 0.430956,1.244982 0.430956,2.705442 0,1.460461 -0.502782,2.896979 -0.478839,1.412576 -1.460461,2.561792 -0.957679,1.125272 -2.44208,1.819589 -1.484404,0.694317 -3.447645,0.694317 -1.939301,0 -3.567354,-0.670375 -1.604112,-0.694317 -2.944863,-1.843531 -1.316808,-1.149216 -2.370255,-2.65756 -1.053448,-1.508343 -1.891417,-3.184283 -0.814026,-1.699879 -1.436517,-3.423702 -0.598549,-1.747763 -1.029505,-3.327933 -0.430955,-1.604113 -0.694318,-2.944863 -0.263362,-1.340752 -0.407014,-2.226604 l 3.543413,-0.694317 q 0.790084,4.309555 1.915358,7.565664 1.149215,3.232166 2.537848,5.410885 1.388636,2.17872 2.992748,3.280051 1.604111,1.077388 3.351876,1.077388 1.244982,0 2.011125,-0.478839 0.766145,-0.502782 1.1971,-1.197098 0.430955,-0.718259 0.574607,-1.46046 0.1676,-0.766145 0.1676,-1.31681 0,-0.98162 -0.407013,-2.082951 -0.383072,-1.125274 -1.149215,-2.226604 -0.742202,-1.125272 -1.867475,-2.154777 -1.125272,-1.029506 -2.585733,-1.867475 V 70.489115 H 94.446363 V 62.588274 H 65.02167 v -3.519471 h 38.37899 z M 98.037655,59.739178 H 94.566071 L 92.38735,55.645101 q -1.388634,-2.609676 -2.513908,-4.141962 -1.149214,-1.532287 -2.154776,-2.322372 -1.029505,-0.814026 -2.011127,-1.029504 -0.981621,-0.23942 -2.059009,-0.23942 h -4.644742 v -3.8786 h 4.38138 q 1.388634,0 2.513906,0.23942 1.125275,0.215478 2.154779,0.814027 1.005562,0.574607 1.987183,1.628055 0.95768,1.029505 2.05901,2.6815 1.101331,1.628055 2.418141,3.926484 1.292866,2.274488 2.968803,5.386945 z m 36.032655,17.453698 q -0.55066,-0.263361 -1.17314,-0.383071 -0.59856,-0.1197 -1.1971,-0.1197 -1.14922,0 -2.20268,0.407013 -1.05343,0.383072 -1.89141,1.005563 -0.81402,0.598551 -1.38864,1.364694 -0.55066,0.766142 -0.71826,1.508343 v 13.790578 h -3.92646 v -9.169777 l -0.0957,-0.04788 q -0.35914,0.311245 -0.9098,0.766143 -0.55068,0.430957 -1.34076,0.83797 -0.76614,0.407014 -1.79564,0.694317 -1.00557,0.287304 -2.27449,0.287304 -2.1069,0 -3.90254,-0.814027 -1.77171,-0.814029 -3.08852,-2.202662 -1.29286,-1.412576 -2.03507,-3.303993 -0.7422,-1.891415 -0.7422,-4.046194 0,-2.059008 0.67038,-3.806774 0.69432,-1.747763 1.86747,-2.992745 1.1971,-1.268926 2.77727,-1.963243 1.60411,-0.718258 3.44765,-0.718258 1.29286,0 2.3942,0.335187 1.12527,0.311246 2.03505,0.790085 0.93374,0.454897 1.652,1.005562 0.7422,0.526725 1.245,0.957681 l 0.0957,-0.02394 V 62.58829 h -19.8479 v -3.519471 h 37.44524 v 3.519471 h -13.67088 v 12.401942 l 0.1197,0.04788 q 1.07738,-0.909797 2.63362,-1.508346 1.58017,-0.622491 3.39975,-0.622491 0.7422,0 1.55624,0.14366 0.81402,0.1197 1.58016,0.454897 z m -19.3451,-5.171465 q -1.3647,0 -2.41814,0.574607 -1.0295,0.550665 -1.72382,1.436517 -0.69432,0.861913 -1.05345,1.963243 -0.33519,1.077388 -0.33519,2.130835 0,1.149216 0.40702,2.29843 0.40701,1.125272 1.1492,2.035067 0.76616,0.909796 1.8196,1.484403 1.05346,0.550665 2.32238,0.550665 1.07738,0 2.25053,-0.430955 1.1971,-0.454897 2.17872,-1.388634 1.00558,-0.933738 1.652,-2.370256 0.64644,-1.460459 0.64644,-3.471586 v -1.173156 q -0.5746,-0.718259 -1.3647,-1.364694 -0.76614,-0.670375 -1.67594,-1.173156 -0.88584,-0.502781 -1.86746,-0.790085 -0.98163,-0.311245 -1.98719,-0.311245 z m 39.00147,18.794449 q -1.9393,1.149214 -4.11802,1.723822 -2.17871,0.574607 -4.35745,0.574607 -2.9688,0 -5.38693,-0.981621 -2.3942,-1.005562 -4.11802,-2.753327 -1.69989,-1.771706 -2.63363,-4.141962 -0.90978,-2.370254 -0.90978,-5.147523 0,-2.633618 0.81402,-4.596859 0.83798,-1.963243 2.2745,-3.256109 1.43651,-1.316808 3.37581,-1.963243 1.96324,-0.646433 4.21377,-0.646433 h 4.6687 v -7.038938 h -19.96761 v -3.519471 h 30.64573 v 3.519471 h -6.75163 v 10.534467 h -7.73327 q -1.72382,0 -3.16033,0.478839 -1.41258,0.478839 -2.44208,1.412578 -1.00558,0.933736 -1.58018,2.32237 -0.55066,1.364694 -0.55066,3.184283 0,1.987183 0.64642,3.615238 0.67038,1.628053 1.84354,2.801212 1.1971,1.173156 2.82516,1.819589 1.65199,0.646433 3.61523,0.646433 1.17316,0 2.37026,-0.23942 1.19709,-0.23942 2.32237,-0.646433 1.12528,-0.407013 2.15478,-0.933736 1.05344,-0.526724 1.9393,-1.125275 z"
         id="text1"
         style="font-size:24.3323px;font-family:Pacifico;-inkscape-font-specification:'Pacifico, Normal';fill:#ffffff;fill-rule:evenodd;stroke:#ffffff;stroke-width:2.64583;stroke-linecap:round;stroke-linejoin:round;stroke-dasharray:none;paint-order:fill markers stroke"
         aria-label="प्रोजेक्ट" /><rect
         style="fill:#ffffff;fill-rule:evenodd;stroke:#ffffff;stroke-width:2.64583;stroke-linecap:round;stroke-linejoin:round;stroke-dasharray:none;paint-order:fill markers stroke"
         id="rect1"
         width="98.000793"
         height="3.533834"
         x="42.500671"
         y="59.06551" /></g></g></svg>
